# xmcd CD database file
# Copyright (C) 1995-1998 Ti Kan
#
# Track frame offsets:
#	150
#	12475
#	25204
#	36833
#	53642
#	62972
#	73608
#	82884
#	93860
#	107328
#	119056
#	129718
#	141773
#	152541
#	166358
#	177415
#	190120
#	199004
#	214797
#	227138
#
# Disc length: 3164 seconds
#
# Revision: 1
# Processed by: cddbd v1.5.1PL2 Copyright (c) Steve Scherf et al.
# Submitted via: CDex 1.30Release
#
DISCID=130c5a14
DTITLE=Patsy Cline and Brenda Lee - Best Of
DYEAR=1960
DGENRE=Country
TTITLE0=Crazy
TTITLE1=I Fall to Pieces
TTITLE2=Walking after midnight
TTITLE3=Faded Love
TTITLE4=Blue moon of Kentucky
TTITLE5=Your Cheating Heart
TTITLE6=Back in Baby's Arms
TTITLE7=Leavin' on your mind
TTITLE8=She's Got You
TTITLE9=Sweet Dreams
TTITLE10=Sweet Nothin's
TTITLE11=I'm sorry
TTITLE12=Dum Dum
TTITLE13=I want to be wanted
TTITLE14=Fool No. 1
TTITLE15=Emotions
TTITLE16=Dynamite
TTITLE17=You can depend on me
TTITLE18=All alone am I
TTITLE19=Speak to me pretty
EXTD=YEAR: 1960 ID3G:   2
EXTT0=
EXTT1=
EXTT2=
EXTT3=
EXTT4=
EXTT5=
EXTT6=
EXTT7=
EXTT8=
EXTT9=
EXTT10=
EXTT11=
EXTT12=
EXTT13=
EXTT14=
EXTT15=
EXTT16=
EXTT17=
EXTT18=
EXTT19=
PLAYORDER=
